<?xml version="1.0" standalone="no"?>
<!DOCTYPE svg PUBLIC "-//W3C//DTD SVG 20010904//EN"
 "http://www.w3.org/TR/2001/REC-SVG-20010904/DTD/svg10.dtd">
<svg version="1.0" xmlns="http://www.w3.org/2000/svg" 
 width="500.000000pt" height="280.000000pt" viewBox="0 0 500.000000 280.000000"
 preserveAspectRatio="xMidYMid meet">

<g transform="translate(0.000000,280.000000) scale(0.100000,-0.100000)"
fill="#000000" stroke="none">
<path d="M307 2203 c-13 -21 -97 -217 -97 -226 0 -5 36 -44 80 -86 l80 -76
-134 -333 c-134 -331 -134 -333 -113 -346 12 -8 230 -136 485 -285 l463 -271
121 0 c105 0 125 3 155 21 l34 21 55 -21 c45 -17 78 -21 172 -21 104 0 118 2
138 21 l23 21 34 -21 c31 -19 47 -20 285 -20 285 -1 260 -9 283 92 7 32 16 60
20 63 4 2 24 -24 45 -58 62 -105 46 -98 220 -98 170 0 167 -1 215 77 12 18 24
33 29 33 4 0 25 -21 46 -47 21 -27 43 -51 49 -55 5 -4 115 -8 244 -8 220 0
235 1 271 21 l38 22 70 -22 c55 -16 96 -21 191 -21 l120 0 463 271 c255 149
473 275 486 280 12 5 22 13 22 18 0 5 -142 215 -316 467 -175 253 -337 489
-362 527 l-45 67 -218 0 -219 0 -78 -156 -78 -156 -35 153 -36 154 -350 3
-351 2 -6 -52 c-22 -184 -71 -527 -75 -523 -2 3 -34 132 -71 288 l-66 282
-341 3 -342 2 -6 -57 c-3 -32 -7 -64 -8 -72 -1 -9 -36 14 -89 57 l-88 72 -704
0 c-388 0 -707 -3 -709 -7z m759 -40 c-3 -10 -15 -53 -27 -95 l-22 -78 -113 0
-112 0 -139 -412 -138 -413 -182 -3 c-145 -2 -183 0 -183 10 0 8 72 193 160
413 88 220 160 401 160 402 0 2 -49 3 -110 3 -60 0 -110 2 -110 4 0 2 14 35
31 73 17 37 35 78 40 91 l9 22 370 0 c349 0 371 -1 366 -17z m709 -39 c39 -30
73 -59 78 -63 4 -4 2 -53 -4 -109 l-12 -101 -103 -62 c-57 -34 -104 -64 -104
-68 1 -4 110 -83 170 -121 5 -3 -2 -102 -14 -220 l-21 -215 -193 -3 -192 -2 0
23 c0 12 11 90 25 172 l25 150 -62 57 c-34 32 -65 54 -69 50 -4 -4 -26 -97
-49 -207 -23 -110 -44 -210 -47 -222 -5 -23 -7 -23 -189 -23 -158 0 -184 2
-184 15 0 12 258 942 275 993 3 9 73 12 302 12 l298 0 70 -56z m465 -46 c0
-72 -26 -865 -30 -915 0 -2 -83 -3 -185 -3 l-185 0 0 33 c0 32 84 862 95 945
l6 42 150 0 149 0 0 -102z m330 97 c0 -11 172 -740 176 -744 2 -2 6 -2 9 1 3
3 23 170 44 372 22 202 41 370 44 372 2 3 69 3 148 2 l144 -3 -62 -495 c-34
-272 -62 -501 -62 -508 -1 -10 -54 -12 -248 -10 l-247 3 -127 508 -127 507
154 0 c85 0 154 -2 154 -5z m1033 -497 c64 -276 114 -505 111 -510 -3 -4 -86
-8 -185 -8 -135 0 -181 3 -184 13 -2 6 -36 223 -75 482 -39 259 -73 482 -76
498 l-6 27 149 0 149 0 117 -502z m896 5 c189 -273 345 -502 348 -510 4 -11
-32 -13 -195 -13 l-201 0 -19 28 c-10 15 -36 57 -56 95 l-38 67 -105 0 -105 0
7 -95 7 -95 -206 0 -206 0 0 23 c0 12 7 241 17 510 l17 487 196 0 196 0 343
-497z"/>
<path d="M1366 1953 c-8 -38 -18 -87 -22 -110 l-7 -43 56 0 56 0 7 38 c4 20
12 67 19 104 7 37 10 70 7 73 -3 3 -27 5 -53 5 l-47 0 -16 -67z"/>
<path d="M4043 1843 c3 -10 20 -73 38 -140 l32 -123 48 0 c33 0 49 4 49 13 0
7 -22 69 -48 137 l-48 125 -38 3 c-32 3 -37 1 -33 -15z"/>
</g>
</svg>
